<?xml version="1.0" encoding="utf-8"?>
<!-- Generator: Adobe Illustrator 26.1.0, SVG Export Plug-In . SVG Version: 6.00 Build 0)  -->
<svg version="1.1" id="Layer_1" xmlns="http://www.w3.org/2000/svg" xmlns:xlink="http://www.w3.org/1999/xlink" x="0px" y="0px"
	 viewBox="0 0 16 16" style="enable-background:new 0 0 16 16;" xml:space="preserve">
<style type="text/css">
	.st0{fill:#ACD9B2;}
	.st1{fill:#FFFFFF;}
</style>
<g>
	<path class="st0" d="M4.9,12.7c0.1,0,0.3-0.1,0.4-0.3c0.1-0.1,0.1-0.4,0.1-0.6V8.6l2.5-4c0,0,0-0.1,0.1-0.1V4.4C8,4.3,8,4.3,8,4.1
		c0-0.3-0.1-0.4-0.3-0.6C7.6,3.5,7.4,3.3,7.4,3.3c-0.3,0-0.5,0.2-0.6,0.5L4.9,6.9L2.7,3.8C2.6,3.5,2.5,3.3,2.2,3.3H2.1
		C2,3.3,1.8,3.5,1.5,3.6c0,0.1-0.1,0.3-0.1,0.6c0,0.1,0,0.1,0,0.3c0,0.2,0.1,0.3,0.1,0.3L4,8.4v3.4c0,0.1,0,0.4,0.1,0.6v0.1
		C4.4,12.5,4.6,12.7,4.9,12.7z"/>
	<path class="st1" d="M11.3,12.7c0.6,0,1.1-0.1,1.7-0.3c0.6-0.3,0.8-0.6,1.2-0.9c0.3-0.4,0.4-0.8,0.4-1.5c0-0.4,0-0.8-0.1-1.1
		c-0.1-0.3-0.3-0.6-0.6-0.8C13.6,8,13.4,7.7,13,7.5c-0.4-0.1-0.8-0.3-1.4-0.3c-0.4,0-0.8-0.1-1.1-0.3c-0.3,0-0.4-0.1-0.6-0.3
		C9.7,6.3,9.7,6.2,9.7,6c0-0.3,0-0.4,0.1-0.6c0.1-0.1,0.4-0.3,0.6-0.4C10.6,5,10.9,5,11.2,5c0.3,0,0.4,0,0.6,0.1
		c0.3,0.1,0.6,0.1,0.6,0.3c0.3,0.1,0.4,0.3,0.6,0.4c0.3,0.1,0.5,0.1,0.5,0.1c0.1,0,0.4-0.1,0.6-0.3c0.1-0.1,0.3-0.3,0.3-0.6
		S14.3,4.4,14,4.3c-0.3-0.3-0.6-0.4-1.1-0.6c-0.4-0.1-0.9-0.3-1.5-0.3c-0.6,0-1.1,0.1-1.7,0.3C9.4,3.9,8.9,4.2,8.6,4.6
		C8.3,5,8.1,5.4,8.1,6c0,0.4,0,0.6,0.1,0.9c0.1,0.3,0.3,0.6,0.6,0.8C9.1,8,9.4,8.1,9.7,8.3c0.4,0.1,0.6,0.3,1.2,0.3
		c0.4,0.1,0.8,0.1,1.2,0.3c0.3,0.1,0.6,0.3,0.6,0.4C12.8,9.3,13,9.6,13,9.8c0,0.3-0.1,0.4-0.3,0.6c-0.1,0.1-0.4,0.3-0.6,0.4
		c-0.3,0.1-0.6,0.1-0.8,0.1c-0.4,0-0.8-0.1-1.2-0.3c-0.3-0.1-0.6-0.3-0.9-0.6c0,0-0.1,0-0.4,0c-0.3,0-0.4,0.1-0.6,0.3
		C8.1,10.6,8,10.8,8,11c0,0.1,0,0.3,0.1,0.4c0,0.1,0.1,0.3,0.3,0.3c0.4,0.4,0.8,0.6,1.4,0.8C10.3,12.7,10.8,12.7,11.3,12.7z"/>
</g>
</svg>
